# xmcd
#
# Track frame offsets: 
#        150
#        12669
#        24468
#        39100
#        52849
#        65219
#        77684
#        90567
#        101810
#        115380
#        128448
#        140452
#        152061
#        163830
#        176779
#
# Disc length: 2538 seconds
#
# Revision: 0
# Processed by: cddbd v1.5.2PL0 Copyright (c) Steve Scherf et al.
# Submitted via: ExactAudioCopy v1.3
#
DISCID=c209e80f
DTITLE=Sons Of The West - Sons Of The West_Country Essentials
DYEAR=2011
DGENRE=Western Swing
TTITLE0=Sally's Got A Wooden Leg
TTITLE1=Spanish Cavalier
TTITLE2=I'll Always Be In Love With You
TTITLE3=Visions Of The Past
TTITLE4=My Gal Don't Love Me Anymore
TTITLE5=My Prairie Queen
TTITLE6=Oh Monah!
TTITLE7=Panhandle Shuffle
TTITLE8=Following You Around
TTITLE9=There's Evil In You, Chillun
TTITLE10=Am I Blue
TTITLE11=Make A Wreath For Mary
TTITLE12=Mama Inez
TTITLE13=I Live In Memory Of You
TTITLE14=Thinking Of You
EXTD=
EXTT0=
EXTT1=
EXTT2=
EXTT3=
EXTT4=
EXTT5=
EXTT6=
EXTT7=
EXTT8=
EXTT9=
EXTT10=
EXTT11=
EXTT12=
EXTT13=
EXTT14=
PLAYORDER=
